<svg width="397" height="411" viewBox="0 0 397 411" fill="none" xmlns="http://www.w3.org/2000/svg">
<path fill-rule="evenodd" clip-rule="evenodd" d="M197.576 2.73071C240.13 -6.83881 290.532 9.30116 318.895 42.4031C346.267 74.3498 322.735 124.363 335.988 164.274C349.385 204.617 406.529 232.389 395.626 273.475C384.867 314.014 324.731 312.679 290.253 336.612C256.901 359.763 238.153 409.221 197.576 410.951C157.019 412.68 132.001 368.334 98.9685 344.765C65.5626 320.93 15.8284 311.3 3.21669 272.277C-9.39412 233.256 17.7409 192.951 38.4668 157.557C55.5796 128.333 86.0875 112.922 110.366 89.2971C140.458 60.015 156.591 11.9474 197.576 2.73071Z" fill="#93E2D5"/>
<path opacity="0.9" d="M343.353 279.383C343.353 300.261 278.028 317.187 197.438 317.187C116.858 317.187 51.5326 300.261 51.5326 279.383C51.5326 279.041 51.5521 278.7 51.5935 278.359C53.4938 259.767 107.207 244.518 176.687 241.958C177.669 241.918 178.65 241.888 179.641 241.858C179.671 241.958 179.712 242.059 179.741 242.159C180.142 243.333 180.572 244.447 180.983 245.35C181.522 246.554 182.064 247.387 182.523 247.507C183.386 247.727 191.493 247.407 197.008 247.035C202.523 247.407 210.631 247.717 211.482 247.497C211.953 247.377 212.483 246.543 213.024 245.339C213.444 244.416 213.884 243.272 214.295 242.078C214.327 241.997 214.354 241.913 214.375 241.828C215.357 241.858 216.329 241.888 217.298 241.929C285.026 244.316 337.979 258.744 342.965 276.613C343.224 277.526 343.353 278.449 343.353 279.383Z" fill="#FFAA81"/>
<g opacity="0.3">
<path d="M189.033 188.918C191.676 188.295 193.428 187.313 194.288 186.48C195.141 185.646 192.265 178.714 191.415 177.199C190.574 175.684 189.581 172.373 188.38 169.475C188.259 169.187 188.111 168.911 187.938 168.651C187.789 168.28 187.588 167.97 187.309 167.749C186.908 167.437 186.366 167.177 185.746 166.935C185.044 162.089 182.098 145.154 175.171 144.915H175.152C173.12 144.534 171.269 144.945 171.269 144.945C171.269 144.945 168.655 145.768 167.544 149.191C164.662 153.595 163.873 160.438 164.135 165.023C164.706 164.933 166.207 164.732 167.809 165.043H167.819C174.726 165.311 177.641 182.219 178.343 187.084C178.964 187.315 179.504 187.585 179.905 187.896C180.175 188.107 180.376 188.407 180.525 188.779C180.695 189.029 180.845 189.311 180.977 189.622C182.179 192.521 183.16 195.832 184.001 197.348C184.842 198.871 187.706 205.804 186.855 206.628C186.005 207.46 184.243 208.453 181.61 209.066C180.329 209.367 177.918 210.17 175.705 210.943C175.586 212.378 175.596 213.842 175.856 214.274C176.167 214.795 177.809 217.294 178.961 219.049C180.371 219.832 181.424 220.703 181.694 221.638C182.014 222.71 182.403 223.995 182.865 225.521H182.875C184.547 225.419 186.228 225.319 187.919 225.229C188.471 225.198 189.031 225.178 189.591 225.147C190.339 213.629 188.308 205.755 186.565 201.299C186.965 201.099 187.315 200.888 187.576 200.657C187.576 200.657 183.781 194.949 183.29 194.137C183.03 193.705 183.03 192.25 183.149 190.806C185.352 190.033 187.762 189.219 189.033 188.918ZM185.989 180.44C186.477 181.555 186.945 182.679 187.391 183.812C185.791 184.373 185.131 184.685 184.57 184.976C185.01 183.581 185.53 181.905 185.989 180.44ZM157.834 189.797C157.244 190.609 156.853 191.543 156.603 192.476C156.292 193.57 156.162 194.643 156.104 195.467C156.044 195.437 155.983 195.396 155.912 195.366C155.687 195.154 155.399 195.021 155.092 194.985C155.082 194.985 155.072 194.975 155.062 194.975C150.956 193.13 145.412 191.917 145.142 191.856C144.712 190.612 144.74 189.147 144.819 188.205V188.195C145.752 187.08 146.593 185.334 147.04 182.606C147.191 182.706 147.302 182.455 147.302 182.455C147.382 182.184 148.522 178.932 148.272 178.18C148.14 177.768 147.88 177.799 147.66 177.92C147.851 176.746 148.071 175.21 148.141 174.056C148.231 172.421 147.23 171.228 146.248 170.455C145.818 170.114 145.157 169.352 144.465 168.67C144.446 168.429 144.404 168.179 144.365 167.907C143.554 166.773 142.803 165.027 142.362 162.339C142.351 162.349 142.351 162.369 142.351 162.369C142.181 162.53 142.062 162.229 142.062 162.229C142.011 162.109 140.91 158.687 141.17 157.935C141.36 157.403 141.75 157.634 141.96 157.805C141.96 157.674 141.97 157.483 141.98 157.263C141.88 156.009 141.7 154.835 141.379 154.643C138.355 152.848 140.357 146.336 149.876 147.227C150.967 147.337 152.76 149.674 153.632 150.357C154.601 151.129 155.612 152.323 155.524 153.959C155.454 155.123 155.233 156.647 155.043 157.831C155.254 157.711 155.524 157.66 155.663 158.082C155.916 158.834 154.773 162.085 154.694 162.356C154.694 162.356 154.584 162.607 154.434 162.497C153.984 165.236 153.143 166.992 152.212 168.106C152.134 169.039 152.112 170.515 152.555 171.769C152.644 171.789 155.276 172.36 158.269 173.301C155.971 180.005 156.491 188.533 157.834 189.797ZM136.612 192.109V192.189C134.887 192.688 133.169 193.21 131.458 193.756C131.539 192.772 131.548 192.17 131.458 192.17H131.157C131.507 191.598 132.659 190.243 132.938 188.758C132.948 188.728 132.958 188.708 132.948 188.677H132.958C132.958 188.677 134.089 186.209 134.67 185.227C135.261 184.253 134.758 184.123 134.54 184.113C134.258 184.113 132.878 186.5 132.297 187.514C132.278 187.495 132.258 187.485 132.239 187.473C132.769 186.16 134.178 182.627 134.299 182.286C134.469 181.865 133.979 181.573 133.709 181.714C133.459 181.855 131.677 185.548 131.046 186.892L131.007 186.882C131.578 185.447 133.208 181.312 133.228 181.092C133.267 180.811 132.687 180.63 132.526 180.801C132.297 181.043 130.305 185.246 129.685 186.561C129.656 186.561 129.624 186.561 129.596 186.55C129.736 185.979 129.987 184.905 130.215 183.922C130.456 182.939 130.665 182.047 130.716 181.846C130.825 181.344 130.536 181.234 130.135 181.485C129.773 181.716 128.584 186.04 128.354 186.863C128.354 186.873 128.344 186.882 128.344 186.882C128.023 187.665 127.833 189.581 127.462 189.201C127.032 188.768 125.451 186.442 124.821 186.693C124.189 186.944 125.47 188.268 125.71 188.769C125.88 189.141 126.492 190.305 127.173 190.926C127.464 191.196 127.384 191.698 127.204 192.18L125.943 192.181C125.943 192.181 125.831 193.004 125.652 194.228C124.685 193.982 123.711 193.771 122.729 193.596C123.9 192.633 124.641 191.197 124.651 189.593C124.651 187.435 123.307 185.589 121.398 184.768C122.596 181.888 123.967 176.81 120.332 173.851C120.502 173.781 120.672 173.711 120.842 173.651C120.842 173.651 121.073 173.47 121.535 173.27C121.526 173.109 121.512 172.948 121.494 172.788C121.455 172.267 121.413 171.765 121.374 171.313L121.364 171.303C119.712 171.373 118.131 170.069 117.037 166.597C116.046 163.448 115.815 160.99 115.996 159.074C114.694 156.405 119.538 149.17 126.584 153.031C131.611 155.79 130.09 161.579 128.79 164.719C130.711 165.531 132.053 167.377 132.055 169.535C132.055 171.13 131.304 172.565 130.133 173.529C131.125 173.709 132.315 173.95 133.428 174.26C133.588 174.441 133.777 174.591 133.998 174.721C134.317 174.913 134.49 176.056 134.599 177.3V177.33C134.589 177.561 134.579 177.742 134.579 177.882C134.368 177.711 133.977 177.48 133.787 178.012C133.527 178.765 134.62 182.186 134.669 182.307C134.669 182.307 134.79 182.608 134.961 182.447C134.961 182.447 134.971 182.438 134.971 182.428C135.401 185.086 136.142 186.832 136.953 187.966V187.976C137.503 191.587 136.612 192.109 136.612 192.109ZM114.12 193.317C113.79 193.468 113.588 193.598 113.499 193.658C113.48 193.673 113.461 193.687 113.44 193.699C112.43 194.08 111.257 194.523 110.729 194.623C110.683 194.632 110.638 194.649 110.597 194.672C110.067 194.863 107.975 195.696 106.714 197.431C106.054 198.336 105.653 199.399 105.393 200.432C104.854 200.432 104.263 200.463 103.631 200.522C102.538 200.621 101.495 201.032 100.628 201.708C100.266 201.98 99.9399 202.297 99.6569 202.651L93.4711 202.702C93.1018 201.499 93.1307 200.114 93.2111 199.22V199.21C94.1418 198.096 94.9827 196.351 95.4317 193.621C95.5824 193.741 95.6917 193.471 95.6917 193.471C95.7815 193.2 96.9232 189.948 96.6714 189.195C96.5307 188.785 96.2606 188.825 96.0515 188.935C96.2412 187.761 96.4723 186.226 96.5307 185.073C96.6305 183.437 95.6195 182.244 94.6479 181.472C94.1377 181.074 93.5622 180.769 92.9473 180.569C92.9122 180.045 92.8547 179.523 92.7752 179.004C91.9658 177.869 91.2153 176.114 90.7732 173.435C90.7631 173.447 90.7631 173.456 90.7631 173.466C90.5929 173.627 90.4717 173.326 90.4717 173.326C90.4228 173.195 89.3219 169.784 89.5919 169.031C89.7112 168.69 89.9103 168.67 90.0924 168.74C89.9109 167.446 89.7502 166.132 89.7916 165.74C89.8915 164.617 89.5103 159.369 99.0295 160.27C100.126 160.367 101.172 160.778 102.042 161.454C103.014 162.216 104.025 163.41 103.934 165.055C103.864 166.219 103.645 167.744 103.455 168.928C103.666 168.797 103.936 168.758 104.075 169.179C104.325 169.931 103.185 173.171 103.105 173.453C103.105 173.453 102.994 173.694 102.845 173.593C102.396 176.333 101.555 178.089 100.624 179.202C100.554 180.096 100.534 181.48 100.915 182.694L108.712 182.612C108.872 183.806 109.174 185.151 109.645 186.645C110.726 190.116 112.298 191.43 113.96 191.35V191.36C113.999 191.812 114.049 192.313 114.088 192.836C114.101 192.995 114.111 193.156 114.12 193.317ZM62.5904 196.055L55.992 196.096C55.992 196.096 56.9717 189.203 59.5327 183.705C59.8241 185.632 61.3878 191.762 62.5904 196.055ZM85.0132 203.135V203.205C81.7287 204.159 76.755 205.675 74.0728 206.83C72.8802 204.402 71.5099 201.492 69.928 198.012C69.9388 198.017 69.9488 198.024 69.9575 198.032C70.9686 198.423 72.1392 198.865 72.6592 198.964C72.6592 198.964 73.5898 199.265 74.6531 199.937C74.7215 199.767 74.7818 199.586 74.8528 199.416C73.5509 198.784 71.6581 197.94 69.5857 197.249C69.2064 196.417 68.8252 195.553 68.4264 194.651C67.8732 193.437 64.9994 182.471 64.9994 182.471C64.9994 182.471 64.4795 182.531 63.7579 182.612C63.5174 182.16 63.3786 181.679 63.6386 181.368C64.2389 180.665 64.708 179.441 64.8274 179.051C64.958 178.638 65.6796 177.654 65.6701 177.163C66.0164 177.072 66.3719 177.022 66.7296 177.013H66.749C68.7825 176.642 70.6433 177.052 70.6433 177.052C70.6433 177.052 72.9757 177.784 74.1682 180.765C76.5006 183.933 77.523 188.579 77.7346 192.572C79.125 189.562 80.3861 187.345 81.1755 186.993C81.5836 186.806 81.9977 186.631 82.417 186.471C82.4679 187.062 82.5772 187.905 82.6889 188.728C82.5068 188.657 82.2977 188.688 82.1765 189.029C81.9184 189.781 83.0092 193.203 83.0582 193.323C83.0582 193.323 83.1794 193.624 83.3496 193.463C83.3496 193.463 83.3596 193.454 83.3596 193.444C83.8018 196.123 84.5522 197.869 85.3517 199.002C85.893 202.612 85.0132 203.135 85.0132 203.135Z" fill="#FFAA81"/>
</g>
<path d="M177.381 234.11C177.381 234.11 176.851 239.87 176.381 245.608C177.723 245.528 179.074 245.447 180.426 245.377C180.606 245.367 180.786 245.357 180.976 245.347C179.234 241.553 177.381 234.11 177.381 234.11ZM70.3424 230.688C70.4341 230.648 70.534 230.639 70.6238 230.688C70.6238 229.896 70.6238 229.093 70.6338 228.29C70.583 228.893 70.4636 229.795 70.3424 230.688Z" fill="#0C003F"/>
<path opacity="0.5" d="M184.001 197.348C183.16 195.833 182.179 192.521 180.977 189.622C180.854 189.327 180.703 189.044 180.525 188.779C180.376 188.407 180.175 188.107 179.905 187.896C179.505 187.585 178.964 187.314 178.343 187.084C177.641 182.219 174.726 165.312 167.819 165.043H167.809C166.207 164.733 164.706 164.933 164.135 165.023C163.975 165.053 163.894 165.074 163.894 165.074C163.894 165.074 161.282 165.887 160.172 169.309C159.392 170.492 158.771 171.857 158.279 173.301H158.269C155.97 180.005 156.49 188.533 157.834 189.797C157.243 190.609 156.852 191.543 156.602 192.476C158.133 191.142 160.796 190.218 164.79 190.608C165.881 190.709 167.674 193.057 168.534 193.738C169.516 194.511 170.517 195.704 170.427 197.341C170.356 198.504 170.137 200.039 169.938 201.213C170.159 201.092 170.429 201.042 170.558 201.464C170.808 202.216 169.668 205.467 169.588 205.738C169.588 205.738 169.469 205.988 169.328 205.879C168.869 208.617 168.028 210.374 167.098 211.488C167.017 212.421 166.998 213.896 167.428 215.14C167.588 215.18 174.836 216.744 178.961 219.05C177.81 217.295 176.167 214.797 175.856 214.275C175.596 213.843 175.586 212.378 175.706 210.944C177.919 210.171 180.33 209.368 181.61 209.067C184.243 208.454 186.005 207.462 186.856 206.629C187.706 205.804 184.841 198.871 184.001 197.348ZM177.146 205.114C177.627 203.608 178.1 202.099 178.566 200.589C179.055 201.699 179.522 202.82 179.967 203.949C178.366 204.512 177.705 204.834 177.146 205.114ZM158.899 215.391V215.471C155.476 216.466 150.211 218.072 147.638 219.237C147.448 219.327 147.247 219.518 146.997 219.788C146.858 219.418 146.647 219.106 146.368 218.886C145.075 217.882 142.274 217.311 140.31 216.94C141.482 215.977 142.232 214.552 142.232 212.947C142.232 210.79 140.889 208.944 138.967 208.131C140.279 204.99 141.808 199.211 136.784 196.443C134.731 195.309 132.869 195.128 131.288 195.501C131.358 194.839 131.417 194.246 131.458 193.756C133.169 193.21 134.887 192.688 136.612 192.189V192.109C136.612 192.109 137.503 191.586 136.952 187.975V187.965C136.141 186.831 135.399 185.085 134.969 182.427C134.969 182.437 134.959 182.446 134.959 182.446C134.789 182.607 134.668 182.306 134.668 182.306C134.619 182.186 133.526 178.764 133.786 178.011C133.976 177.479 134.367 177.71 134.578 177.881C134.578 177.741 134.588 177.559 134.598 177.33V177.299C134.488 176.055 134.316 174.912 133.997 174.721C133.784 174.598 133.591 174.442 133.426 174.259C131.303 172.023 133.665 166.473 142.504 167.324C143.043 167.375 143.765 167.986 144.465 168.669C145.157 169.351 145.817 170.113 146.248 170.454C147.229 171.227 148.23 172.42 148.14 174.055C148.07 175.209 147.851 176.745 147.659 177.919C147.88 177.797 148.14 177.767 148.271 178.179C148.521 178.931 147.381 182.183 147.301 182.453C147.301 182.453 147.19 182.704 147.039 182.604C146.592 185.333 145.751 187.079 144.819 188.193V188.203C144.738 189.146 144.711 190.61 145.142 191.855C145.412 191.915 150.956 193.128 155.062 194.974C154.802 196.208 155.251 197.382 156.284 198.003C156.605 198.194 156.784 199.368 156.884 200.623C156.865 200.843 156.865 201.034 156.854 201.165C156.645 200.994 156.264 200.763 156.074 201.295C155.814 202.047 156.905 205.469 156.956 205.589C156.956 205.589 157.076 205.89 157.246 205.729C157.246 205.729 157.246 205.71 157.256 205.699C157.698 208.389 158.448 210.134 159.25 211.267C159.789 214.879 158.899 215.391 158.899 215.391ZM57.3491 217.076C56.8708 215.567 56.3996 214.055 55.9355 212.541C55.2259 214.127 54.5256 215.913 54.5256 215.913C54.6349 215.952 54.7448 215.993 54.8459 216.022H55.1549C55.3464 216.001 55.526 215.992 55.7257 216.001C55.6962 216.112 55.6667 216.223 55.6359 216.322C56.4768 216.645 56.9384 216.875 57.3491 217.076ZM52.4394 246.745C52.4784 246.735 52.5198 246.724 52.5587 246.705C52.6705 246.665 52.7892 246.624 52.8991 246.594C53.5422 246.378 54.1894 246.174 54.8403 245.983C54.8811 245.971 54.9106 245.961 54.9401 245.951C55.4017 245.821 55.8319 245.701 56.242 245.59C57.0417 245.369 57.8462 245.165 58.6547 244.979C58.7835 244.949 58.8953 244.918 58.9951 244.898C59.2451 244.838 59.4058 244.807 59.4548 244.798C59.8963 243.553 59.8749 242.078 59.7952 241.135C58.8645 240.022 58.0336 238.266 57.5922 235.526C57.4414 235.627 57.3221 235.386 57.3221 235.386C57.2417 235.105 56.1101 231.864 56.36 231.112C56.4988 230.691 56.7707 230.731 56.9817 230.851C56.8995 230.339 56.8097 229.757 56.7293 229.165C56.6998 228.975 56.6803 228.784 56.659 228.594L56.6005 228.111C56.562 227.738 56.532 227.363 56.5107 226.988C56.4191 225.342 57.4295 224.148 58.401 223.386C58.5298 223.286 58.661 223.196 58.7898 223.105C58.7898 223.036 58.7803 222.974 58.7803 222.905C56.5691 222.132 54.1564 221.331 52.8859 221.03C50.8236 220.548 49.3101 219.837 48.3405 219.145H48.3304C47.8688 219.345 47.4682 219.566 47.1479 219.806C46.8779 220.017 46.6687 220.329 46.5281 220.7V220.71C46.3507 220.963 46.2032 221.236 46.0885 221.522C44.8783 224.422 43.8873 227.734 43.0364 229.249C42.1861 230.763 39.3042 237.688 40.1564 238.519C41.0167 239.352 42.7682 240.346 45.4002 240.967C46.6825 241.277 49.0853 242.09 51.287 242.861C51.3787 243.915 51.3988 244.988 51.287 245.651C51.2575 245.89 51.2067 246.082 51.1388 246.192M47.0612 235.86C47.0612 235.86 47.7614 234.075 48.4629 232.499C48.9226 233.974 49.4426 235.649 49.8841 237.033C49.3233 236.744 48.6645 236.432 47.0612 235.86ZM61.9844 177.494C61.9844 177.494 61.975 177.484 61.9649 177.464C61.9534 177.442 61.9435 177.418 61.9354 177.394C61.5442 176.431 59.9409 172.529 59.5716 172.358C59.1414 172.147 58.8601 172.288 59.0303 172.78C59.171 173.161 60.2932 176.22 60.7039 177.323C60.6744 177.333 60.6436 177.333 60.6141 177.344C59.8341 176.09 57.3585 172.168 57.0992 171.957C56.9196 171.816 56.3795 172.067 56.4385 172.329C56.4994 172.549 58.6026 176.452 59.3437 177.816L59.3123 177.826C58.5128 176.572 56.3092 173.121 56.0492 173.01C55.7578 172.9 55.3081 173.251 55.5172 173.652C55.6893 173.974 57.5118 177.315 58.1919 178.55C58.1724 178.569 58.1511 178.579 58.131 178.599C57.4509 177.656 55.7791 175.438 55.4997 175.488C55.2887 175.519 54.8076 175.72 55.5097 176.612C56.2099 177.515 57.6229 179.833 57.6229 179.833H57.633C57.633 179.863 57.643 179.883 57.6524 179.914C58.1121 181.348 59.414 182.552 59.8247 183.084C59.6545 183.104 59.5452 183.124 59.5239 183.114C59.4749 183.124 59.485 183.335 59.5339 183.706C59.6256 183.495 59.7255 183.294 59.8347 183.094C60.6053 181.518 61.526 180.092 62.5973 179.02C62.3951 178.508 62.186 177.856 61.9844 177.494ZM62.6005 196.055H62.5904C62.6802 196.367 62.77 196.668 62.8504 196.959C62.2092 196.848 60.8169 196.698 59.3374 196.979H59.316C53.7815 197.171 50.7802 206.04 49.4388 211.62C49.8709 210.586 50.2603 209.733 50.5008 209.301C51.3511 207.786 52.3308 204.476 53.5309 201.576C53.6539 201.292 53.8018 201.021 53.973 200.764C54.1237 200.383 54.3228 200.071 54.6023 199.86C55.4431 199.208 56.9252 198.735 58.3954 198.385C59.8674 198.044 61.3394 197.811 62.1489 197.641C62.2802 197.601 62.4089 197.582 62.5402 197.541C62.5791 197.531 62.6206 197.521 62.6494 197.511C62.6494 197.511 62.9408 196.969 63.16 196.046C62.9734 196.044 62.7868 196.047 62.6005 196.055ZM65.4585 176.881C65.2079 176.811 64.8682 177.133 64.5184 177.595C64.8843 177.406 65.2708 177.261 65.6701 177.162C65.6695 177.022 65.6092 176.922 65.4585 176.881ZM69.5857 197.249C69.4959 197.218 69.396 197.188 69.3062 197.159V197.178C69.2962 197.329 69.2868 197.49 69.2673 197.65C69.6372 197.81 69.8576 197.951 69.928 198.011C69.8162 197.76 69.7069 197.509 69.5857 197.249Z" fill="#FFAA81"/>
<path opacity="0.5" d="M101.684 223.108C101.463 223.158 88.5011 225.93 87.4002 229.562C87.2909 229.953 87.1596 230.374 87.019 230.816C86.6886 230.695 86.3583 230.565 86.028 230.444V230.434C86.028 230.434 85.7894 230.243 85.2989 230.033C85.3083 229.863 85.3184 229.683 85.3378 229.512C85.3786 228.949 85.4276 228.408 85.4785 227.917V227.906C87.2595 227.986 88.9626 226.591 90.1414 222.849C94.1531 210.135 86.8061 207.82 86.8061 207.82C86.8061 207.82 83.0619 206.978 80.2196 208.645C80.2391 208.624 80.2586 208.594 80.2805 208.574C80.2805 208.574 70.7594 206.749 70.7418 219.29C70.6929 221.959 70.6539 224.749 70.6345 227.478C70.5641 226.032 70.4429 221.367 61.4142 222.212C61.1819 222.234 60.9513 222.271 60.724 222.323L60.4734 222.383C59.878 222.534 59.3099 222.778 58.7897 223.106C58.7897 223.037 58.7803 222.976 58.7803 222.906C56.5691 222.134 54.1564 221.332 52.8859 221.031C50.8236 220.549 49.3101 219.838 48.3405 219.146C50.3425 218.292 53.3846 217.88 54.7059 217.599C54.876 217.56 55.0362 217.508 55.2064 217.479C55.2064 217.479 55.4274 217.058 55.6366 216.324C56.4775 216.646 56.9384 216.876 57.3491 217.076C56.8708 215.567 56.3995 214.056 55.9355 212.542C55.2258 214.127 54.5256 215.913 54.5256 215.913C54.6349 215.952 54.7448 215.994 54.8459 216.023L48.5489 216.055C48.5489 216.055 48.819 214.189 49.4382 211.619C49.8703 210.586 50.2596 209.732 50.5001 209.301C51.3505 207.786 52.3301 204.475 53.5302 201.575C53.6533 201.292 53.8012 201.02 53.9724 200.763C54.1231 200.382 54.3222 200.071 54.6016 199.86C55.4425 199.207 56.9246 198.735 58.3947 198.384C59.8668 198.043 61.3388 197.811 62.1483 197.641C62.2795 197.601 62.4083 197.581 62.5395 197.541C62.5785 197.531 62.6199 197.52 62.6488 197.511C62.6488 197.511 62.9402 196.969 63.1594 196.046C62.9697 196.046 62.7801 196.046 62.6004 196.056H62.5904C61.3878 191.762 59.8241 185.632 59.5327 183.707C59.6244 183.496 59.7242 183.295 59.8335 183.094C59.9038 183.194 59.9428 183.255 59.9528 183.304C59.9528 183.255 59.9038 183.194 59.8335 183.094C60.604 181.519 61.5247 180.093 62.5961 179.02C62.797 179.532 62.9773 179.903 63.1474 179.693C63.3779 179.402 63.9569 178.328 64.5177 177.596C64.8836 177.407 65.2701 177.262 65.6695 177.163C65.6789 177.654 64.958 178.638 64.8267 179.051C64.7074 179.441 64.2383 180.665 63.6379 181.368C63.3779 181.678 63.5167 182.16 63.7572 182.612C64.4788 182.531 64.9988 182.471 64.9988 182.471C64.9988 182.471 67.8725 193.437 68.4258 194.651C68.8246 195.554 69.2058 196.417 69.5851 197.249C69.4953 197.219 69.3954 197.188 69.3056 197.159V197.179C69.2956 197.33 69.2861 197.49 69.2667 197.65C69.6366 197.811 69.857 197.952 69.9273 198.012C71.5093 201.492 72.8796 204.402 74.0721 206.83C76.7543 205.675 81.7281 204.159 85.0125 203.205V203.135C85.0125 203.135 85.8923 202.612 85.351 199.002C84.5516 197.868 83.8005 196.122 83.359 193.443C83.359 193.453 83.3489 193.463 83.3489 193.463C83.1788 193.623 83.0576 193.323 83.0576 193.323C83.0086 193.203 81.9177 189.781 82.1758 189.028C82.297 188.687 82.5062 188.657 82.6883 188.727C82.5765 187.904 82.4672 187.062 82.4164 186.47C82.3868 186.139 82.3774 185.878 82.3868 185.738C82.4961 184.614 82.125 179.366 91.6442 180.287C92.0883 180.326 92.5257 180.42 92.946 180.569C93.561 180.769 94.1365 181.074 94.6467 181.472C95.6182 182.244 96.6293 183.437 96.5294 185.073C96.471 186.226 96.2399 187.761 96.0502 188.935C96.2594 188.825 96.5294 188.785 96.6701 189.195C96.9225 189.948 95.7808 193.2 95.6904 193.471C95.6904 193.471 95.5811 193.742 95.4304 193.621C94.9808 196.351 94.1399 198.096 93.2098 199.21V199.22C93.1294 200.113 93.1005 201.498 93.4698 202.702L99.6556 202.651C99.0866 203.343 98.6665 204.226 98.7268 205.3C98.7971 206.463 99.0163 207.999 99.2078 209.172C98.9868 209.052 98.7174 209.002 98.5767 209.423C98.3381 210.175 99.4584 213.426 99.5482 213.697C99.5482 213.697 99.6575 213.947 99.8082 213.848C100.25 216.587 101.091 218.344 102.021 219.455C102.093 220.389 102.114 221.863 101.684 223.108Z" fill="#FFAA81"/>
<path d="M101.889 253.458C101.85 253.468 101.69 253.528 101.418 253.608L101.889 253.458ZM155.062 194.974C155.072 194.974 155.081 194.985 155.091 194.985C155.402 195.025 155.693 195.155 155.912 195.365C155.982 195.396 156.043 195.436 156.103 195.466C156.162 194.643 156.291 193.569 156.602 192.476C155.722 193.228 155.222 194.122 155.062 194.974Z" fill="#FFAA81"/>
<path opacity="0.8" d="M201.342 241.768C201.332 241.708 201.323 241.648 201.301 241.588C201.291 241.487 201.272 241.397 201.252 241.307C201.141 240.765 201.073 240.413 201.073 240.413C201.073 240.413 199.299 240.663 197.018 240.915H196.979C195.647 241.056 194.156 241.205 192.744 241.307C189.841 241.497 187.268 241.507 187.108 240.895C185.821 235.737 184.409 230.612 182.873 225.524H182.863C182.403 223.999 182.013 222.715 181.692 221.641C181.422 220.708 180.371 219.835 178.961 219.052C174.835 216.744 167.588 215.179 167.428 215.14C166.997 213.895 167.017 212.42 167.097 211.488C168.03 210.374 168.871 208.619 169.33 205.879C169.47 205.99 169.59 205.739 169.59 205.739C169.67 205.468 170.812 202.218 170.561 201.465C170.43 201.044 170.161 201.093 169.94 201.214C170.141 200.04 170.36 198.505 170.43 197.341C170.51 195.706 169.509 194.511 168.54 193.739C167.677 193.058 165.877 190.709 164.786 190.609C160.792 190.218 158.129 191.141 156.608 192.476C156.287 193.569 156.166 194.643 156.107 195.465C156.047 195.435 155.986 195.396 155.906 195.365C155.696 195.155 155.405 195.024 155.085 194.984C155.075 194.984 155.075 194.973 155.065 194.973C154.805 196.208 155.255 197.382 156.287 198.004C156.608 198.195 156.788 199.369 156.888 200.623C156.868 200.844 156.868 201.034 156.858 201.165C156.647 200.994 156.268 200.764 156.076 201.295C155.816 202.048 156.907 205.469 156.958 205.589C156.958 205.589 157.077 205.89 157.248 205.73C157.248 205.73 157.248 205.709 157.258 205.7C157.7 208.388 158.45 210.134 159.25 211.268C159.791 214.88 158.9 215.392 158.9 215.392V215.473C155.477 216.466 150.212 218.071 147.639 219.235C147.449 219.325 147.247 219.516 146.997 219.786C146.859 219.415 146.648 219.105 146.368 218.883C145.076 217.88 142.274 217.308 140.311 216.937C141.482 215.974 142.233 214.55 142.233 212.943C142.233 210.787 140.892 208.941 138.97 208.128C140.282 204.987 141.813 199.208 136.788 196.449C134.725 195.316 132.874 195.125 131.292 195.506C131.363 194.844 131.424 194.252 131.463 193.76C131.543 192.777 131.552 192.175 131.463 192.175H131.164C131.513 191.603 132.653 190.248 132.935 188.764C132.945 188.723 132.955 188.714 132.945 188.683H132.955C132.955 188.683 134.088 186.215 134.668 185.231C135.258 184.249 134.758 184.128 134.537 184.118C134.258 184.118 132.876 186.506 132.295 187.519C132.275 187.5 132.256 187.489 132.234 187.47C132.766 186.165 134.177 182.623 134.297 182.292C134.467 181.871 133.976 181.58 133.706 181.72C133.456 181.861 131.675 185.553 131.044 186.897L131.005 186.887C131.574 185.453 133.206 181.319 133.226 181.099C133.267 180.817 132.687 180.637 132.526 180.808C132.295 181.048 130.303 185.253 129.683 186.566C129.651 186.566 129.623 186.566 129.593 186.556C129.732 185.984 129.982 184.911 130.213 183.928C130.453 182.945 130.664 182.051 130.713 181.852C130.823 181.35 130.534 181.239 130.133 181.49C129.773 181.721 128.583 186.045 128.352 186.868C128.352 186.878 128.342 186.888 128.342 186.888C128.021 187.671 127.831 189.588 127.46 189.205C127.03 188.774 125.449 186.446 124.817 186.697C124.187 186.947 125.468 188.272 125.709 188.774C125.879 189.145 126.491 190.309 127.181 190.932C127.47 191.202 127.381 191.704 127.21 192.185H125.949C125.949 192.185 125.84 193.007 125.66 194.232C125.198 197.533 124.297 203.764 124.018 204.696C120.684 215.503 118.442 221.783 116.661 225.465C116.379 225.375 116.099 225.285 115.82 225.194L114.979 224.923L113.837 224.562C113.376 224.422 112.916 224.282 112.476 224.141C112.015 224.011 111.575 223.87 111.145 223.75C110.815 223.649 110.504 223.559 110.203 223.469V223.388C110.203 223.388 109.323 222.867 109.873 219.265C110.684 218.131 111.434 216.385 111.884 213.707L111.896 213.727C112.066 213.887 112.185 213.596 112.185 213.596C112.236 213.466 113.337 210.054 113.077 209.301C112.956 208.96 112.756 208.93 112.567 209.001C112.616 208.659 112.667 208.328 112.705 207.997C112.768 207.554 112.818 207.109 112.856 206.663C112.866 206.563 112.876 206.462 112.876 206.381C112.886 206.258 112.886 206.134 112.876 206.01C112.786 204.957 113.106 200.321 105.399 200.432C104.858 200.432 104.267 200.462 103.638 200.522C102.544 200.62 101.502 201.032 100.635 201.706C100.272 201.977 99.9453 202.294 99.6632 202.649C99.0923 203.341 98.6722 204.224 98.7325 205.297C98.8028 206.461 99.022 207.996 99.2135 209.17C98.9925 209.05 98.723 208.999 98.5817 209.42C98.3412 210.173 99.4635 213.424 99.5533 213.694C99.5533 213.694 99.6625 213.945 99.8133 213.846C100.253 216.584 101.094 218.34 102.024 219.454C102.095 220.387 102.114 221.862 101.684 223.105C101.465 223.156 88.5011 225.925 87.4002 229.557C87.2909 229.948 87.1597 230.369 87.019 230.811C86.6887 230.691 86.3583 230.561 86.028 230.44V230.43C86.028 230.43 85.7894 230.239 85.2989 230.028C85.309 229.858 85.3184 229.687 85.3378 229.517C85.3787 228.945 85.4277 228.403 85.4785 227.922V227.901C87.2595 227.982 88.9627 226.588 90.1433 222.845C94.1569 210.133 86.8099 207.815 86.8099 207.815C86.8099 207.815 83.0657 206.983 80.2234 208.648C80.2429 208.627 80.2624 208.597 80.2837 208.578C80.2837 208.578 70.7626 206.751 70.7431 219.293C70.6941 221.962 70.6533 224.751 70.6339 227.48C70.5635 226.036 70.4442 221.37 61.4136 222.213C61.1814 222.235 60.9509 222.272 60.7234 222.324L60.4734 222.383C59.8831 222.534 59.3123 222.776 58.7923 223.105C58.6598 223.196 58.5294 223.29 58.401 223.387C57.4314 224.149 56.4203 225.343 56.5108 226.989C56.5302 227.34 56.5597 227.712 56.6006 228.112L56.659 228.594C56.6803 228.784 56.6998 228.975 56.7293 229.166C56.8097 229.759 56.8995 230.34 56.9799 230.852C56.7708 230.732 56.4988 230.692 56.36 231.113C56.1095 231.865 57.2399 235.105 57.3203 235.387C57.3203 235.387 57.4415 235.628 57.5922 235.528C58.0324 238.266 58.8633 240.022 59.7933 241.136C59.8737 242.078 59.9026 243.554 59.4529 244.798C59.4021 244.808 59.2419 244.838 58.9914 244.898C58.9016 244.918 58.7822 244.949 58.651 244.979C58.0701 245.109 57.2298 245.32 56.2382 245.59C55.8041 245.708 55.3708 245.828 54.9383 245.951C54.9069 245.961 54.8874 245.971 54.8484 245.982C54.2267 246.162 53.5661 246.373 52.8954 246.593C51.4836 250.717 51.1338 266.108 51.1043 279.231C51.2431 278.94 51.4032 278.649 51.5948 278.358C53.4951 259.767 107.209 244.517 176.689 241.958C177.06 237.653 177.381 234.112 177.381 234.112C177.381 234.112 178.392 238.195 179.643 241.857C179.672 241.958 179.713 242.058 179.743 242.158C180.143 243.332 180.573 244.446 180.984 245.35C181.524 246.553 182.066 247.386 182.525 247.506C183.387 247.726 191.494 247.406 197.009 247.035C199.993 246.824 202.245 246.604 202.245 246.422C202.212 246.293 201.682 243.493 201.342 241.768ZM70.6219 230.692C70.5321 230.642 70.4323 230.651 70.3406 230.692C70.4618 229.799 70.5811 228.896 70.632 228.294C70.6219 229.096 70.6219 229.898 70.6219 230.692Z" fill="#FFAA81"/>
<path opacity="0.5" d="M125.652 194.228C125.192 197.529 124.293 203.759 124.011 204.692C120.682 215.499 118.442 221.78 116.658 225.462L115.817 225.193C115.538 225.101 115.256 225.011 114.976 224.921L113.835 224.56C113.375 224.42 112.914 224.28 112.474 224.138C112.012 224.008 111.573 223.869 111.142 223.749C110.812 223.649 110.501 223.557 110.202 223.467V223.387C110.202 223.387 109.321 222.866 109.87 219.264C110.681 218.13 111.432 216.383 111.882 213.705L111.892 213.724C112.062 213.885 112.183 213.594 112.183 213.594C112.232 213.463 113.332 210.052 113.072 209.299C112.951 208.958 112.751 208.928 112.562 208.998C112.611 208.657 112.661 208.326 112.7 207.995C112.763 207.551 112.813 207.106 112.851 206.66C112.862 206.567 112.868 206.474 112.871 206.38C112.881 206.257 112.881 206.132 112.871 206.009C112.781 204.954 113.101 200.32 105.392 200.432C105.652 199.398 106.053 198.335 106.714 197.431C107.975 195.695 110.067 194.862 110.597 194.672C110.637 194.648 110.682 194.631 110.728 194.622C111.255 194.522 112.429 194.079 113.44 193.698C113.44 193.698 113.459 193.688 113.498 193.658C113.588 193.598 113.789 193.468 114.12 193.316C114.11 193.156 114.1 192.995 114.088 192.836C114.049 192.313 113.999 191.811 113.96 191.36V191.35C112.298 191.431 110.726 190.116 109.645 186.645C109.174 185.151 108.872 183.806 108.712 182.612C108.532 181.267 108.513 180.114 108.612 179.1C107.32 176.412 112.174 169.217 119.201 173.088C119.6 173.307 119.978 173.563 120.331 173.851C123.965 176.81 122.595 181.887 121.396 184.768C123.307 185.589 124.649 187.435 124.649 189.593C124.639 191.198 123.899 192.633 122.728 193.596C123.61 193.756 124.651 193.967 125.652 194.228Z" fill="#FFAA81"/>
<g opacity="0.3">
<path d="M94.4736 146.65L118.342 130.747L127.008 143.814L103.139 159.717L94.4736 146.65Z" fill="#FFAA81"/>
<path d="M103.144 159.712L104.346 158.913L113.2 172.29L111.998 173.09L103.144 159.712Z" fill="#FFAA81"/>
</g>
<g opacity="0.3">
<path d="M210.842 190.804C210.963 192.249 210.963 193.704 210.701 194.135C210.212 194.947 206.418 200.657 206.418 200.657C206.677 200.887 207.027 201.098 207.428 201.299C205.686 205.754 203.654 213.63 204.405 225.148C204.967 225.178 205.526 225.198 206.077 225.229C207.768 225.319 209.449 225.419 211.123 225.519H211.133C211.593 223.994 211.983 222.709 212.304 221.636C212.574 220.702 213.626 219.83 215.036 219.047C216.187 217.292 217.83 214.793 218.14 214.272C218.4 213.84 218.41 212.374 218.289 210.94C216.078 210.167 213.665 209.364 212.385 209.064C209.752 208.451 207.99 207.458 207.139 206.626C206.289 205.802 209.151 198.87 209.991 197.345C210.832 195.831 211.813 192.518 213.014 189.619C213.145 189.309 213.295 189.027 213.466 188.776C213.614 188.405 213.815 188.104 214.085 187.893C214.486 187.582 215.025 187.311 215.647 187.08C216.347 182.214 219.26 165.308 226.167 165.037H226.177C227.778 164.727 229.28 164.926 229.851 165.016C230.111 160.432 229.321 153.589 226.437 149.185C225.327 145.763 222.712 144.94 222.712 144.94C222.712 144.94 220.861 144.529 218.829 144.911H218.81C211.883 145.151 208.938 162.087 208.239 166.933C207.619 167.174 207.078 167.435 206.677 167.746C206.397 167.967 206.196 168.277 206.047 168.649C205.876 168.91 205.728 169.185 205.605 169.472C204.405 172.371 203.414 175.682 202.573 177.197C201.723 178.712 198.848 185.645 199.701 186.478C200.561 187.311 202.313 188.293 204.956 188.916C206.228 189.218 208.641 190.031 210.842 190.804ZM209.421 184.975C208.86 184.684 208.199 184.373 206.598 183.811C206.598 183.811 207.3 182.025 207.999 180.44C208.461 181.904 208.981 183.579 209.421 184.975ZM236.158 189.79C236.749 190.602 237.138 191.536 237.388 192.469C237.699 193.563 237.83 194.636 237.888 195.46C237.949 195.43 238.01 195.389 238.08 195.359C238.306 195.147 238.594 195.014 238.901 194.978C238.911 194.978 238.92 194.968 238.93 194.968C243.034 193.122 248.581 191.908 248.85 191.847C249.28 190.602 249.251 189.138 249.17 188.195V188.185C248.238 187.071 247.398 185.325 246.947 182.596C246.797 182.696 246.687 182.445 246.687 182.445C246.607 182.175 245.465 178.924 245.716 178.171C245.846 177.76 246.107 177.79 246.328 177.911C246.136 176.737 245.917 175.201 245.846 174.047C245.757 172.412 246.758 171.218 247.737 170.445C248.169 170.104 248.829 169.342 249.52 168.66C249.539 168.419 249.58 168.169 249.62 167.897C250.431 166.763 251.181 165.017 251.622 162.328C251.632 162.338 251.632 162.359 251.632 162.359C251.802 162.519 251.923 162.219 251.923 162.219C251.972 162.099 253.073 158.677 252.813 157.924C252.623 157.392 252.232 157.623 252.023 157.794C252.023 157.664 252.013 157.473 252.003 157.252C252.103 155.998 252.283 154.824 252.604 154.633C255.626 152.837 253.624 146.325 244.105 147.218C243.014 147.328 241.221 149.666 240.351 150.349C239.38 151.121 238.369 152.315 238.459 153.95C238.529 155.114 238.75 156.639 238.94 157.823C238.729 157.703 238.459 157.652 238.32 158.073C238.07 158.826 239.21 162.077 239.29 162.349C239.29 162.349 239.401 162.599 239.55 162.488C240.001 165.228 240.842 166.984 241.773 168.097C241.853 169.03 241.873 170.505 241.432 171.759C241.342 171.778 238.709 172.351 235.716 173.294C238.02 179.999 237.5 188.526 236.158 189.79ZM257.379 192.098V192.178C259.105 192.677 260.823 193.199 262.535 193.744C262.455 192.76 262.445 192.158 262.535 192.158H262.834C262.484 191.586 261.332 190.232 261.053 188.747C261.043 188.716 261.033 188.697 261.043 188.666H261.033C261.033 188.666 259.901 186.198 259.321 185.215C258.731 184.242 259.231 184.111 259.452 184.101C259.732 184.101 261.114 186.489 261.695 187.502C261.714 187.483 261.734 187.473 261.753 187.462C261.223 186.148 259.812 182.616 259.693 182.275C259.522 181.854 260.014 181.562 260.283 181.704C260.533 181.843 262.314 185.536 262.946 186.88L262.985 186.87C262.414 185.435 260.783 181.301 260.763 181.081C260.723 180.8 261.303 180.62 261.464 180.79C261.694 181.031 263.687 185.235 264.307 186.55C264.336 186.55 264.367 186.55 264.396 186.539C264.256 185.968 264.005 184.894 263.777 183.911C263.536 182.928 263.325 182.035 263.276 181.835C263.165 181.333 263.456 181.222 263.857 181.473C264.217 181.704 265.407 186.029 265.638 186.851C265.638 186.861 265.647 186.871 265.647 186.871C265.968 187.654 266.158 189.57 266.529 189.189C266.959 188.757 268.541 186.43 269.17 186.681C269.802 186.931 268.521 188.255 268.281 188.757C268.11 189.128 267.499 190.292 266.818 190.914C266.528 191.185 266.609 191.687 266.788 192.168H268.049C268.049 192.168 268.159 192.992 268.339 194.215C269.305 193.969 270.28 193.759 271.262 193.583C270.09 192.62 269.351 191.185 269.34 189.58C269.34 187.422 270.683 185.577 272.593 184.755C271.393 181.875 270.022 176.798 273.654 173.838C273.484 173.768 273.314 173.698 273.144 173.638C273.144 173.638 272.914 173.457 272.454 173.256C272.464 173.096 272.474 172.935 272.493 172.774C272.534 172.253 272.574 171.751 272.614 171.299L272.624 171.289C274.277 171.359 275.858 170.055 276.949 166.584C277.94 163.433 278.169 160.975 277.989 159.058C279.291 156.39 274.446 149.156 267.398 153.018C262.374 155.777 263.895 161.567 265.197 164.707C263.275 165.519 261.934 167.367 261.934 169.523C261.934 171.118 262.684 172.553 263.856 173.517C262.865 173.697 261.674 173.938 260.561 174.249C260.397 174.432 260.204 174.588 259.99 174.71C259.672 174.901 259.5 176.045 259.39 177.289V177.32C259.4 177.55 259.409 177.731 259.409 177.871C259.62 177.7 260.012 177.469 260.201 178.001C260.461 178.754 259.37 182.175 259.32 182.295C259.32 182.295 259.2 182.596 259.03 182.436C259.03 182.436 259.02 182.426 259.02 182.416C258.59 185.074 257.849 186.821 257.037 187.954V187.964C256.487 191.577 257.379 192.098 257.379 192.098ZM279.872 193.302C280.11 193.408 280.338 193.536 280.553 193.683C281.563 194.064 282.735 194.507 283.265 194.606C283.311 194.616 283.355 194.633 283.396 194.656C283.926 194.847 286.018 195.68 287.279 197.415C287.939 198.318 288.34 199.381 288.6 200.415C289.141 200.415 289.732 200.445 290.362 200.505C291.455 200.603 292.497 201.015 293.365 201.689C293.727 201.961 294.054 202.277 294.336 202.632L300.522 202.681C300.894 201.479 300.862 200.094 300.782 199.2V199.19C299.851 198.076 299.011 196.331 298.561 193.601C298.411 193.721 298.301 193.451 298.301 193.451C298.212 193.18 297.07 189.929 297.32 189.176C297.461 188.766 297.731 188.806 297.94 188.915C297.75 187.741 297.52 186.206 297.461 185.053C297.359 183.418 298.37 182.224 299.341 181.451C299.852 181.053 300.427 180.748 301.042 180.548C301.073 180.106 301.122 179.585 301.214 178.983C302.024 177.849 302.774 176.093 303.216 173.414C303.226 173.425 303.226 173.435 303.226 173.445C303.396 173.605 303.516 173.304 303.516 173.304C303.567 173.174 304.667 169.762 304.397 169.01C304.276 168.668 304.077 168.648 303.897 168.719C304.077 167.425 304.237 166.11 304.196 165.719C304.096 164.595 304.477 159.348 294.958 160.251C293.86 160.347 292.814 160.759 291.943 161.435C290.973 162.198 289.962 163.392 290.053 165.037C290.123 166.201 290.342 167.725 290.532 168.91C290.323 168.778 290.053 168.739 289.912 169.161C289.661 169.913 290.804 173.153 290.884 173.435C290.884 173.435 290.993 173.676 291.144 173.575C291.593 176.314 292.434 178.07 293.365 179.183C293.435 180.077 293.456 181.461 293.075 182.676L285.277 182.595C285.118 183.79 284.817 185.134 284.346 186.628C283.265 190.099 281.695 191.414 280.033 191.334V191.344C279.992 191.796 279.943 192.297 279.902 192.819L279.872 193.302ZM331.402 196.031L338 196.071C338 196.071 337.019 189.178 334.456 183.68C334.167 185.607 332.604 191.737 331.402 196.031ZM308.981 203.115V203.184C312.264 204.137 317.239 205.653 319.922 206.807C321.112 204.379 322.485 201.469 324.065 197.988C324.045 197.998 324.035 198.008 324.035 198.008C323.024 198.399 321.853 198.841 321.333 198.941C321.333 198.941 320.403 199.242 319.341 199.914C319.271 199.744 319.21 199.564 319.14 199.393C320.442 198.761 322.334 197.918 324.407 197.226C324.786 196.393 325.167 195.53 325.566 194.628C326.117 193.413 328.991 182.446 328.991 182.446C328.991 182.446 329.511 182.507 330.231 182.587C330.471 182.136 330.612 181.653 330.352 181.343C329.752 180.641 329.281 179.417 329.161 179.026C329.03 178.614 328.309 177.631 328.319 177.139C327.972 177.048 327.617 176.998 327.259 176.989H327.24C325.206 176.618 323.345 177.029 323.345 177.029C323.345 177.029 321.013 177.761 319.822 180.742C317.49 183.912 316.468 188.558 316.258 192.55C314.866 189.54 313.605 187.323 312.816 186.972C312.408 186.785 311.994 186.611 311.574 186.45C311.523 187.041 311.414 187.884 311.302 188.707C311.484 188.637 311.694 188.667 311.815 189.008C312.075 189.76 310.984 193.182 310.933 193.303C310.933 193.303 310.814 193.604 310.644 193.442C310.644 193.442 310.632 193.433 310.632 193.423C310.191 196.102 309.441 197.848 308.641 198.982C308.1 202.593 308.981 203.115 308.981 203.115Z" fill="#FFAA81"/>
</g>
<path d="M213.024 245.344C213.216 245.354 213.396 245.363 213.575 245.374C214.926 245.443 216.277 245.524 217.619 245.605C217.149 239.866 216.617 234.106 216.617 234.106C216.617 234.106 214.765 241.552 213.024 245.344ZM323.364 228.268C323.374 229.071 323.374 229.873 323.374 230.666C323.464 230.617 323.564 230.626 323.656 230.666C323.534 229.773 323.415 228.87 323.364 228.268Z" fill="#0C003F"/>
<path opacity="0.5" d="M207.139 206.626C207.989 207.459 209.751 208.452 212.385 209.064C213.665 209.365 216.078 210.168 218.289 210.941C218.41 212.375 218.4 213.84 218.14 214.272C217.829 214.793 216.187 217.292 215.036 219.048C219.161 216.74 226.408 215.175 226.569 215.135C226.999 213.891 226.979 212.416 226.899 211.483C225.966 210.369 225.126 208.613 224.667 205.875C224.526 205.984 224.407 205.734 224.407 205.734C224.326 205.463 223.184 202.213 223.435 201.46C223.566 201.039 223.836 201.088 224.057 201.209C223.855 200.035 223.637 198.5 223.566 197.337C223.476 195.7 224.477 194.507 225.457 193.734C226.319 193.052 228.11 190.704 229.201 190.604C233.195 190.213 235.857 191.135 237.389 192.47C237.139 191.537 236.749 190.604 236.159 189.791C237.5 188.527 238.02 179.999 235.717 173.296H235.707C235.217 171.852 234.597 170.487 233.817 169.303C232.705 165.882 230.092 165.07 230.092 165.07C230.092 165.07 230.012 165.049 229.852 165.019C229.281 164.929 227.78 164.729 226.178 165.04H226.169C219.261 165.31 216.348 182.217 215.648 187.082C215.027 187.313 214.487 187.584 214.087 187.896C213.817 188.107 213.616 188.407 213.467 188.779C213.289 189.044 213.138 189.326 213.015 189.622C211.815 192.521 210.834 195.832 209.993 197.348C209.151 198.87 206.289 205.804 207.139 206.626ZM214.025 203.947C214.025 203.947 214.727 202.161 215.427 200.585C215.895 202.096 216.368 203.604 216.848 205.111C216.287 204.83 215.628 204.509 214.025 203.947ZM235.097 215.385V215.465C238.52 216.458 243.785 218.063 246.358 219.227C246.548 219.317 246.75 219.509 246.999 219.779C247.138 219.409 247.349 219.097 247.629 218.876C248.922 217.873 251.723 217.301 253.686 216.929C252.515 215.966 251.765 214.541 251.765 212.937C251.765 210.779 253.106 208.933 255.028 208.121C253.716 204.98 252.185 199.201 257.209 196.432C259.262 195.298 261.124 195.117 262.705 195.488C262.641 194.907 262.584 194.326 262.535 193.743C260.824 193.198 259.105 192.676 257.379 192.178V192.097C257.379 192.097 256.487 191.576 257.039 187.964V187.954C257.85 186.82 258.591 185.074 259.021 182.416C259.021 182.426 259.031 182.435 259.031 182.435C259.202 182.596 259.321 182.295 259.321 182.295C259.372 182.175 260.463 178.753 260.203 178.001C260.013 177.469 259.622 177.7 259.411 177.87C259.411 177.73 259.401 177.549 259.391 177.319V177.289C259.5 176.044 259.673 174.901 259.992 174.71C260.205 174.587 260.398 174.432 260.562 174.248C262.686 172.011 260.322 166.463 251.483 167.316C250.943 167.367 250.222 167.978 249.522 168.661C248.832 169.343 248.171 170.105 247.739 170.446C246.76 171.219 245.759 172.412 245.849 174.048C245.919 175.202 246.138 176.737 246.33 177.911C246.109 177.791 245.849 177.76 245.718 178.172C245.468 178.925 246.609 182.175 246.69 182.446C246.69 182.446 246.799 182.696 246.95 182.597C247.399 185.326 248.24 187.072 249.173 188.186V188.196C249.253 189.138 249.282 190.604 248.853 191.847C248.583 191.908 243.036 193.122 238.933 194.968C239.193 196.202 238.743 197.376 237.711 197.998C237.39 198.188 237.21 199.362 237.11 200.617C237.13 200.837 237.13 201.029 237.14 201.159C237.351 200.988 237.73 200.757 237.922 201.289C238.182 202.041 237.091 205.463 237.04 205.584C237.04 205.584 236.921 205.885 236.751 205.724C236.751 205.724 236.751 205.705 236.74 205.694C236.298 208.384 235.548 210.13 234.748 211.263C234.205 214.873 235.097 215.385 235.097 215.385ZM324.064 197.988C324.135 197.928 324.356 197.787 324.725 197.626C324.708 197.47 324.695 197.312 324.686 197.155V197.135C324.596 197.165 324.497 197.195 324.407 197.225C324.286 197.486 324.176 197.737 324.064 197.988ZM328.319 177.138C328.719 177.239 329.1 177.379 329.47 177.571C329.121 177.109 328.78 176.788 328.53 176.858C328.379 176.898 328.319 176.999 328.319 177.138ZM331.392 196.031C331.212 196.021 331.023 196.021 330.833 196.021C331.052 196.943 331.344 197.485 331.344 197.485C331.373 197.495 331.414 197.506 331.453 197.516C331.584 197.556 331.713 197.575 331.844 197.616C332.654 197.786 334.126 198.017 335.598 198.358C337.068 198.709 338.55 199.181 339.391 199.833C339.672 200.044 339.872 200.356 340.023 200.736C340.183 200.978 340.332 201.248 340.463 201.549C341.663 204.448 342.645 207.759 343.495 209.274C343.736 209.706 344.127 210.559 344.557 211.593C343.215 206.014 340.212 197.145 334.678 196.953H334.656C333.176 196.673 331.785 196.823 331.143 196.934C331.224 196.643 331.313 196.342 331.403 196.031H331.392ZM338.479 176.587C339.181 175.694 338.7 175.494 338.489 175.463C338.21 175.414 336.538 177.631 335.858 178.574C335.838 178.553 335.817 178.544 335.797 178.524C336.477 177.29 338.299 173.949 338.47 173.627C338.681 173.226 338.229 172.875 337.94 172.985C337.68 173.096 335.477 176.547 334.676 177.801L334.645 177.791C335.386 176.426 337.488 172.524 337.548 172.303C337.609 172.042 337.067 171.791 336.888 171.932C336.628 172.143 334.155 176.066 333.375 177.32C333.345 177.309 333.314 177.309 333.285 177.299C333.696 176.196 334.816 173.136 334.957 172.755C335.127 172.263 334.847 172.122 334.417 172.332C334.046 172.504 332.445 176.406 332.053 177.37C332.045 177.394 332.035 177.418 332.024 177.44C332.019 177.451 332.012 177.461 332.004 177.47C331.803 177.831 331.594 178.484 331.393 178.996C332.464 180.068 333.385 181.494 334.155 183.069C334.266 183.27 334.366 183.471 334.456 183.681C334.507 183.31 334.516 183.099 334.466 183.09C334.447 183.099 334.337 183.079 334.167 183.06C334.576 182.528 335.878 181.324 336.339 179.889C336.349 179.859 336.359 179.839 336.359 179.808H336.368C336.368 179.807 337.779 177.49 338.479 176.587ZM342.864 246.167C342.604 245.735 342.594 244.27 342.714 242.836C344.915 242.063 347.318 241.251 348.6 240.94C351.232 240.318 352.984 239.325 353.844 238.492C354.696 237.659 351.813 230.736 350.962 229.221C350.112 227.707 349.12 224.396 347.908 221.495C347.794 221.208 347.647 220.936 347.469 220.683V220.673C347.328 220.302 347.119 219.99 346.849 219.779C346.528 219.54 346.127 219.318 345.666 219.118H345.656C344.687 219.81 343.175 220.522 341.113 221.004C339.842 221.305 337.43 222.108 335.217 222.881C335.217 222.951 335.206 223.011 335.206 223.081C335.337 223.172 335.466 223.262 335.598 223.362C336.567 224.124 337.578 225.319 337.488 226.964C337.467 227.339 337.437 227.714 337.398 228.088L337.34 228.57C337.318 228.76 337.299 228.951 337.269 229.141C337.189 229.733 337.099 230.315 337.02 230.828C337.229 230.707 337.501 230.667 337.639 231.088C337.889 231.84 336.76 235.081 336.68 235.362C336.68 235.362 336.559 235.603 336.408 235.502C335.968 238.241 335.137 239.997 334.207 241.112C334.126 242.054 334.107 243.529 334.547 244.773C334.598 244.783 334.758 244.813 335.009 244.874C335.109 244.893 335.218 244.924 335.349 244.954C335.93 245.085 336.77 245.296 337.762 245.566C338.173 245.666 338.612 245.797 339.062 245.927C339.093 245.937 339.122 245.946 339.162 245.957C339.893 246.177 340.663 246.418 341.445 246.679C341.484 246.699 341.525 246.709 341.564 246.719M344.116 237.006C344.555 235.622 345.075 233.946 345.537 232.472C346.025 233.583 346.493 234.703 346.939 235.832C345.335 236.405 344.677 236.716 344.116 237.006ZM338.36 216.298C338.329 216.198 338.299 216.087 338.27 215.977C338.47 215.967 338.65 215.977 338.841 215.998H339.15C339.252 215.967 339.361 215.927 339.471 215.887C339.471 215.887 338.77 214.102 338.059 212.517C337.596 214.031 337.126 215.542 336.647 217.051C337.058 216.85 337.519 216.62 338.36 216.298Z" fill="#FFAA81"/>
<path opacity="0.5" d="M292.314 223.091C292.533 223.141 305.497 225.91 306.598 229.542C306.707 229.933 306.838 230.354 306.979 230.796C307.309 230.676 307.64 230.546 307.97 230.425V230.415C307.97 230.415 308.209 230.224 308.699 230.013C308.689 229.842 308.68 229.662 308.66 229.492C308.622 228.959 308.575 228.428 308.52 227.897V227.886C306.739 227.967 305.035 226.572 303.855 222.829C299.841 210.117 307.188 207.8 307.188 207.8C307.188 207.8 310.932 206.957 313.775 208.623C313.755 208.602 313.736 208.572 313.714 208.552C313.714 208.552 323.235 206.726 323.255 219.268C323.304 221.936 323.345 224.726 323.364 227.455C323.435 226.01 323.554 221.345 332.585 222.188C332.813 222.207 333.044 222.247 333.275 222.298L333.525 222.358C334.115 222.509 334.686 222.749 335.206 223.08C335.206 223.01 335.216 222.95 335.216 222.88C337.429 222.107 339.842 221.305 341.112 221.004C343.174 220.521 344.686 219.81 345.656 219.117C343.654 218.264 340.612 217.852 339.29 217.572C339.119 217.532 338.959 217.481 338.789 217.452C338.789 217.452 338.568 217.031 338.359 216.297C337.518 216.619 337.057 216.849 336.646 217.049C337.125 215.54 337.596 214.029 338.058 212.515C338.552 213.628 339.023 214.752 339.47 215.885C339.364 215.925 339.257 215.962 339.15 215.996L345.447 216.026C345.447 216.026 345.177 214.16 344.555 211.591C344.125 210.558 343.734 209.704 343.494 209.273C342.644 207.759 341.662 204.448 340.462 201.547C340.339 201.264 340.192 200.992 340.021 200.735C339.871 200.354 339.672 200.043 339.39 199.832C338.549 199.18 337.067 198.708 335.596 198.357C334.124 198.016 332.652 197.785 331.843 197.614C331.712 197.574 331.583 197.555 331.452 197.514C331.413 197.504 331.371 197.494 331.342 197.484C331.342 197.484 331.051 196.942 330.832 196.019C331.021 196.019 331.211 196.019 331.391 196.029H331.401C332.603 191.736 334.165 185.605 334.455 183.679C334.365 183.47 334.265 183.265 334.154 183.066C334.085 183.167 334.045 183.227 334.035 183.277C334.035 183.228 334.085 183.168 334.154 183.066C333.383 181.492 332.463 180.066 331.391 178.993C331.192 179.505 331.012 179.876 330.842 179.666C330.611 179.375 330.03 178.301 329.47 177.569C329.104 177.381 328.717 177.235 328.318 177.136C328.308 177.629 329.029 178.612 329.161 179.023C329.28 179.414 329.751 180.638 330.351 181.341C330.611 181.651 330.471 182.133 330.23 182.585C329.51 182.504 328.99 182.444 328.99 182.444C328.99 182.444 326.117 193.411 325.565 194.625C325.167 195.528 324.785 196.391 324.406 197.224C324.496 197.193 324.596 197.163 324.686 197.133V197.153C324.696 197.304 324.705 197.465 324.724 197.624C324.355 197.785 324.134 197.927 324.064 197.986C322.484 201.467 321.112 204.377 319.921 206.805C317.239 205.651 312.263 204.136 308.981 203.183V203.113C308.981 203.113 308.099 202.59 308.64 198.979C309.44 197.845 310.191 196.099 310.63 193.42C310.63 193.43 310.642 193.44 310.642 193.44C310.812 193.6 310.932 193.3 310.932 193.3C310.983 193.18 312.073 189.758 311.813 189.005C311.692 188.664 311.483 188.634 311.301 188.704C311.412 187.881 311.522 187.039 311.573 186.447C311.602 186.116 311.612 185.856 311.602 185.715C311.493 184.592 311.862 179.344 302.343 180.267C301.899 180.305 301.462 180.4 301.041 180.548C300.426 180.748 299.851 181.053 299.341 181.451C298.369 182.224 297.358 183.418 297.46 185.053C297.518 186.206 297.749 187.741 297.939 188.915C297.73 188.806 297.46 188.766 297.319 189.176C297.069 189.928 298.21 193.179 298.301 193.451C298.301 193.451 298.41 193.722 298.561 193.601C299.01 196.331 299.851 198.076 300.781 199.19V199.2C300.862 200.093 300.893 201.478 300.521 202.681L294.336 202.632C294.906 203.324 295.327 204.207 295.266 205.281C295.196 206.444 294.977 207.98 294.785 209.154C295.006 209.033 295.276 208.983 295.417 209.404C295.658 210.156 294.535 213.407 294.445 213.678C294.445 213.678 294.336 213.929 294.185 213.829C293.745 216.569 292.905 218.325 291.974 219.438C291.903 220.372 291.884 221.846 292.314 223.091Z" fill="#FFAA81"/>
<path d="M292.112 253.441C292.253 254.204 292.363 254.876 292.455 255.377C292.494 254.795 292.533 254.214 292.584 253.591C292.314 253.511 292.154 253.451 292.112 253.441ZM237.388 192.469C237.699 193.563 237.83 194.636 237.888 195.46C237.949 195.43 238.01 195.389 238.08 195.359C238.306 195.147 238.594 195.014 238.901 194.978C238.911 194.978 238.92 194.968 238.93 194.968C238.77 194.115 238.27 193.222 237.388 192.469Z" fill="#FFAA81"/>
<path opacity="0.5" d="M268.339 194.215C268.8 197.516 269.702 203.747 269.981 204.679C273.315 215.486 275.557 221.766 277.338 225.448L278.179 225.178L279.02 224.906L280.162 224.544C280.623 224.405 281.082 224.264 281.522 224.123C281.984 223.993 282.424 223.853 282.854 223.732C283.184 223.632 283.495 223.542 283.796 223.451V223.37C283.796 223.37 284.676 222.849 284.127 219.247C283.315 218.114 282.565 216.368 282.115 213.689L282.103 213.708C281.933 213.869 281.814 213.578 281.814 213.578C281.763 213.448 280.662 210.036 280.923 209.284C281.044 208.943 281.243 208.912 281.433 208.983C281.384 208.642 281.333 208.311 281.295 207.98C281.232 207.536 281.182 207.091 281.144 206.645C281.133 206.552 281.127 206.459 281.124 206.365C281.114 206.241 281.114 206.117 281.124 205.994C281.214 204.939 280.894 200.305 288.601 200.415C288.341 199.381 287.94 198.318 287.279 197.415C286.018 195.679 283.926 194.847 283.396 194.656C283.356 194.632 283.311 194.615 283.265 194.606C282.735 194.506 281.564 194.064 280.553 193.683C280.553 193.683 280.534 193.673 280.493 193.643C280.296 193.513 280.088 193.399 279.873 193.302L279.902 192.821C279.943 192.299 279.992 191.797 280.033 191.346V191.336C281.695 191.416 283.265 190.101 284.346 186.63C284.817 185.135 285.118 183.792 285.277 182.597C285.458 181.252 285.478 180.099 285.378 179.085C286.669 176.397 281.814 169.203 274.788 173.075C274.368 173.306 273.986 173.567 273.656 173.837C270.023 176.797 271.393 181.875 272.594 184.754C270.684 185.576 269.341 187.422 269.341 189.579C269.353 191.185 270.092 192.62 271.263 193.583C270.281 193.758 269.306 193.969 268.339 194.215Z" fill="#FFAA81"/>
<path opacity="0.8" d="M340.851 246.835C340.921 246.815 341.222 246.785 341.713 246.745C341.662 246.724 341.611 246.714 341.573 246.695C341.528 246.686 341.484 246.672 341.442 246.655C340.69 246.397 339.932 246.156 339.17 245.931C339.131 245.921 339.089 245.912 339.061 245.902C338.599 245.771 338.179 245.651 337.758 245.54C336.958 245.32 336.154 245.115 335.345 244.928C335.217 244.898 335.105 244.868 335.005 244.849C334.755 244.788 334.594 244.757 334.545 244.748C334.103 243.503 334.125 242.029 334.205 241.086C335.136 239.972 335.966 238.217 336.406 235.477C336.557 235.578 336.676 235.337 336.676 235.337C336.756 235.056 337.888 231.816 337.638 231.063C337.497 230.642 337.227 230.681 337.016 230.802C337.097 230.29 337.187 229.708 337.266 229.116C337.298 228.926 337.317 228.735 337.337 228.545C337.356 228.384 337.378 228.223 337.398 228.062C337.437 227.661 337.468 227.29 337.487 226.939C337.577 225.293 336.567 224.099 335.595 223.337C335.466 223.237 335.335 223.146 335.206 223.056C334.686 222.727 334.118 222.484 333.522 222.334C333.444 222.313 333.352 222.293 333.272 222.274C333.045 222.222 332.814 222.184 332.582 222.163C323.553 221.32 323.434 225.985 323.364 227.43C323.341 224.701 323.304 221.972 323.253 219.243C323.233 206.702 313.714 208.528 313.714 208.528C313.733 208.547 313.753 208.578 313.774 208.598C312.523 207.856 311.08 207.615 309.88 207.575L315.776 198.675L291.903 182.783L283.244 195.856L290.19 200.481C289.662 200.426 289.13 200.399 288.599 200.4C280.892 200.291 281.21 204.926 281.121 205.979C281.11 206.103 281.11 206.227 281.121 206.351C281.121 206.431 281.131 206.531 281.142 206.631C281.172 206.992 281.22 207.463 281.291 207.965C281.332 208.296 281.381 208.627 281.431 208.968C281.242 208.899 281.04 208.928 280.921 209.269C280.661 210.022 281.762 213.434 281.812 213.564C281.812 213.564 281.931 213.855 282.102 213.694L282.112 213.675C282.563 216.354 283.314 218.1 284.123 219.234C284.674 222.835 283.793 223.357 283.793 223.357V223.437C283.494 223.528 283.183 223.618 282.853 223.718C282.422 223.839 281.983 223.979 281.521 224.109C281.081 224.25 280.62 224.391 280.16 224.532L279.019 224.892C278.739 224.982 278.458 225.072 278.178 225.164L277.337 225.434C275.556 221.752 273.313 215.472 269.98 204.666C269.699 203.733 268.799 197.502 268.338 194.202C268.148 192.978 268.048 192.155 268.048 192.155H266.775C266.605 191.674 266.515 191.172 266.816 190.9C267.487 190.278 268.097 189.114 268.267 188.742C268.507 188.241 269.788 186.917 269.158 186.666C268.527 186.416 266.945 188.742 266.515 189.175C266.145 189.556 265.954 187.639 265.635 186.856C265.635 186.856 265.625 186.846 265.625 186.837C265.395 186.014 264.202 181.69 263.842 181.459C263.442 181.208 263.152 181.318 263.262 181.82C263.313 182.021 263.522 182.914 263.763 183.897C263.993 184.88 264.244 185.954 264.384 186.525C264.353 186.536 264.324 186.536 264.295 186.536C263.673 185.221 261.681 181.018 261.45 180.777C261.292 180.606 260.711 180.787 260.75 181.067C260.769 181.288 262.402 185.422 262.973 186.856L262.932 186.866C262.303 185.521 260.519 181.829 260.269 181.689C259.999 181.548 259.509 181.839 259.679 182.261C259.8 182.603 261.212 186.134 261.741 187.447C261.722 187.458 261.7 187.468 261.681 187.488C261.1 186.475 259.72 184.087 259.438 184.087C259.219 184.097 258.719 184.227 259.309 185.201C259.89 186.184 261.02 188.652 261.02 188.652H261.03C261.02 188.682 261.03 188.701 261.042 188.732C261.331 190.218 262.473 191.572 262.833 192.144H262.522C262.432 192.144 262.441 192.746 262.522 193.729C262.563 194.22 262.633 194.813 262.692 195.474C261.122 195.104 259.259 195.284 257.208 196.417C252.181 199.186 253.714 204.966 255.024 208.106C253.102 208.919 251.761 210.764 251.761 212.922C251.761 214.527 252.511 215.952 253.683 216.915C251.721 217.286 248.918 217.858 247.628 218.862C247.346 219.082 247.137 219.394 246.996 219.765C246.746 219.494 246.547 219.302 246.357 219.212C243.784 218.048 238.519 216.453 235.096 215.461V215.38C235.096 215.38 234.204 214.868 234.744 211.256C235.545 210.122 236.296 208.376 236.736 205.688C236.746 205.698 236.746 205.718 236.746 205.718C236.916 205.878 237.037 205.577 237.037 205.577C237.086 205.457 238.177 202.035 237.917 201.283C237.727 200.752 237.348 200.982 237.137 201.153C237.127 201.022 237.127 200.832 237.107 200.611C237.207 199.357 237.387 198.183 237.708 197.993C238.738 197.371 239.19 196.197 238.918 194.963C238.908 194.963 238.908 194.973 238.898 194.973C238.578 195.013 238.298 195.144 238.078 195.355C237.997 195.384 237.948 195.424 237.888 195.455C237.827 194.631 237.698 193.559 237.377 192.464C235.856 191.13 233.184 190.207 229.189 190.599C228.108 190.699 226.316 193.046 225.445 193.729C224.474 194.501 223.473 195.695 223.563 197.331C223.633 198.494 223.854 200.029 224.053 201.204C223.834 201.083 223.563 201.032 223.433 201.454C223.183 202.206 224.322 205.457 224.403 205.728C224.403 205.728 224.524 205.979 224.663 205.868C225.124 208.608 225.965 210.364 226.895 211.477C226.976 212.411 226.995 213.885 226.565 215.13C226.405 215.17 219.157 216.735 215.034 219.042C213.623 219.825 212.573 220.698 212.301 221.631C211.981 222.704 211.592 223.989 211.13 225.514H211.12C209.586 230.603 208.174 235.728 206.885 240.885C206.737 241.496 204.154 241.496 201.251 241.306C199.839 241.205 198.348 241.056 197.016 240.914H196.977C194.694 240.663 192.922 240.412 192.922 240.412L192.743 241.306C192.72 241.402 192.703 241.499 192.692 241.597C192.674 241.656 192.661 241.716 192.653 241.777C192.332 243.502 191.791 246.292 191.771 246.422C191.771 246.604 194.023 246.824 197.007 247.035C202.522 247.406 210.63 247.716 211.48 247.496C211.951 247.376 212.481 246.542 213.023 245.338C213.443 244.416 213.883 243.272 214.294 242.078C214.326 241.996 214.353 241.912 214.374 241.827C215.606 238.166 216.617 234.101 216.617 234.101C216.617 234.101 216.947 237.633 217.297 241.928C285.025 244.315 337.978 258.743 342.964 276.612C342.974 276.623 342.983 276.642 342.993 276.652C342.913 263.349 342.442 249.012 340.851 246.835ZM292.312 223.076C291.882 221.832 291.903 220.358 291.972 219.424C292.904 218.311 293.745 216.555 294.185 213.805C294.336 213.905 294.445 213.654 294.445 213.654C294.535 213.394 295.657 210.133 295.416 209.38C295.276 208.958 295.006 209.009 294.785 209.129C294.974 207.955 295.195 206.42 295.266 205.267C295.295 204.717 295.199 204.168 294.984 203.661L304.416 209.942C303.483 211.166 302.684 213.042 302.652 215.852L297.057 224.299C294.496 223.548 292.404 223.086 292.312 223.076ZM307.968 230.391V230.401C307.638 230.521 307.308 230.651 306.977 230.772C306.844 230.356 306.718 229.938 306.598 229.518C306.017 227.592 302.084 225.906 298.488 224.743L302.803 218.24C302.983 219.585 303.314 221.099 303.855 222.805C305.036 226.548 306.737 227.942 308.52 227.862V227.872C308.574 228.404 308.62 228.936 308.658 229.469C308.68 229.639 308.69 229.819 308.699 229.99C308.209 230.199 307.968 230.391 307.968 230.391ZM323.374 230.641C323.374 229.849 323.374 229.046 323.364 228.242C323.413 228.845 323.535 229.747 323.654 230.641C323.564 230.601 323.464 230.59 323.374 230.641Z" fill="#FFAA81"/>
<path d="M93.7838 253.667C93.7737 253.737 93.7643 253.818 93.7643 253.888C93.6655 253.853 93.5716 253.806 93.4849 253.747C93.5841 253.718 93.6839 253.697 93.7838 253.667ZM144.446 244.667C144.646 244.637 144.846 244.618 145.046 244.597H145.056C145.056 244.617 145.056 244.647 145.046 244.667" fill="#FFAA81"/>
<path opacity="0.9" d="M101.442 253.908C101.573 253.867 101.702 253.838 101.833 253.798L101.442 253.908ZM214.294 242.078C213.884 243.273 213.444 244.416 213.023 245.339C212.482 246.543 211.952 247.376 211.481 247.497C210.631 247.717 202.523 247.407 197.008 247.035C191.492 247.407 183.384 247.727 182.523 247.507C182.063 247.386 181.522 246.553 180.982 245.35C180.572 244.447 180.141 243.333 179.741 242.159C184.043 241.955 188.348 241.828 192.654 241.778C194.396 241.748 196.148 241.738 197.9 241.738C199.05 241.738 200.201 241.738 201.343 241.768C205.706 241.788 210.031 241.898 214.294 242.078ZM292.122 253.427C292.164 253.437 292.324 253.497 292.593 253.567C292.543 254.189 292.504 254.771 292.463 255.363C292.372 254.861 292.263 254.189 292.122 253.427Z" fill="#FFAA81"/>
<path d="M332.634 264.915C330.741 264.523 328.97 263.951 327.979 263.129C327.871 263.052 327.773 262.961 327.689 262.858C327.799 262.898 327.898 262.938 327.998 262.978C329.554 263.598 331.099 264.244 332.634 264.915Z" fill="#FFAA81"/>
<path d="M192.374 116.733H192.358V116.648L192.374 116.733ZM197.151 116.818L197.059 117.012L196.965 116.818V116.648H197.15V116.818H197.151ZM198.294 119.597L197.143 120.741C197.143 120.741 196.702 119.995 196.036 119.148L197.058 117.012L198.294 119.597ZM245.365 148.423V148.465C245.289 149.017 245.154 149.559 244.95 150.009C244.941 150.038 244.929 150.066 244.915 150.093C244.645 150.67 244.248 151.076 243.699 151.119C243.665 151.127 243.632 151.127 243.597 151.127C241.797 151.119 239.953 150.068 239.202 149.789C239.058 149.738 238.956 149.714 238.897 149.721C238.516 149.798 236.074 149.238 236.074 149.238L236.68 144.612C236.68 144.612 237.493 144.984 238.297 145.128C238.905 145.239 239.506 145.221 239.76 144.815C240.335 143.866 241.56 142.892 241.965 142.603C242.499 142.214 243.758 140.408 244.198 141.094C244.638 141.774 242.255 144.162 241.848 144.765C241.493 145.29 243.783 145.086 244.765 145.29C244.773 145.29 244.79 145.297 244.806 145.297C244.933 145.323 245.043 145.357 245.111 145.408C245.271 145.518 245.391 146.019 245.432 146.688C245.432 146.722 245.442 146.755 245.442 146.797C245.465 147.288 245.449 147.865 245.365 148.423Z" fill="#F1B99E"/>
<path d="M244.618 145.281C244.618 145.281 251.107 145.764 251.498 146.175C251.887 146.589 251.826 146.955 251.215 146.939C250.605 146.918 244.921 146.661 244.921 146.661C244.921 146.661 252.451 148.588 252.844 148.849C253.074 149.002 252.992 149.72 252.664 149.741C252.334 149.763 244.746 148.306 244.746 148.306C244.746 148.306 251.773 150.119 252.035 150.441C252.263 150.725 252.033 151.374 251.499 151.274C250.967 151.182 244.335 149.89 244.335 149.89C244.335 149.89 249.356 151.547 249.417 151.966C249.454 152.222 249.408 152.843 248.13 152.372C246.849 151.9 243.702 151.127 243.702 151.127L244.618 145.281Z" fill="#F1B99E"/>
<path d="M239.202 149.788C239.058 149.737 238.956 149.712 238.897 149.719C238.516 149.797 236.074 149.236 236.074 149.236L236.68 144.611C236.68 144.611 237.493 144.983 238.297 145.127C238.127 144.271 238.01 143.653 238.01 143.653C238.01 143.653 223.29 145.737 222.903 144.187C220.316 133.866 218.203 127.333 217.011 123.358C215.826 119.393 201.573 116.351 201.573 116.351C201.632 116.512 201.691 116.665 201.759 116.817C201.759 116.817 202.156 118.799 201.209 120.35L197.135 146.423C197.583 146.237 197.524 147.288 197.043 147.627C197.456 147.78 198.041 148.034 198.142 148.271C198.343 148.771 198.284 149.202 198.073 149.516C198.073 149.516 198.437 150.516 198.191 151.185C198.191 151.185 198.546 152.092 198.015 152.845C198.015 152.845 198.275 153.812 197.827 154.202C197.827 154.202 197.193 154.524 196.847 154.54C196.847 154.54 196.214 154.498 195.757 154.498C195.614 154.506 195.495 154.506 195.411 154.516C195.08 154.567 194.353 154.769 193.518 154.651C192.679 154.54 189.763 153.829 189.763 153.829L189.781 153.558C190.144 153.507 190.348 153.473 190.348 153.473C192.299 150.389 192.385 148.474 192.367 147.983C193.433 147.458 194.549 146.965 194.921 146.974C194.997 146.974 195.073 146.982 195.14 146.992C195.167 146.992 195.193 147 195.218 147.008C195.529 146.914 196.739 146.576 197.136 146.423C197.136 146.423 193.543 124.571 192.589 118.35C192.458 117.82 192.382 117.278 192.36 116.733C188.658 117.808 182.968 119.545 180.17 120.817C177.161 122.189 167.929 151.38 168.622 152.542C170.1 155.041 177.465 154.906 183.213 154.38C182.935 160.268 182.435 165.522 181.615 166.989C178.825 171.979 195.158 172.538 195.158 172.538C205.413 173.071 210.697 171.047 210.697 171.047C210.697 171.047 210.476 164.455 210.476 161.201C210.476 157.948 212.37 136.866 212.37 136.866C212.37 136.866 215.87 150.813 217.95 151.346C219.387 151.711 239.364 150.694 239.27 150.144C239.261 150.118 239.244 149.991 239.202 149.788ZM183.432 148.363C180.988 148.381 178.934 148.237 178.722 147.712C178.165 146.339 183.051 133.925 183.373 134.087C183.524 134.163 183.61 140.942 183.432 148.363Z" fill="#0C003F"/>
<path d="M198.015 152.846C198.015 152.846 198.275 153.813 197.827 154.203C197.827 154.203 197.193 154.525 196.847 154.542C196.847 154.542 196.214 154.499 195.757 154.499C195.614 154.507 195.495 154.507 195.411 154.517C195.08 154.568 194.353 154.771 193.518 154.652C192.679 154.542 189.763 153.83 189.763 153.83L189.781 153.56C190.144 153.508 190.348 153.475 190.348 153.475C192.299 150.39 192.385 148.475 192.367 147.984C193.433 147.459 194.549 146.967 194.921 146.975C194.997 146.975 195.073 146.984 195.14 146.993C195.168 146.993 195.193 147.001 195.218 147.009C195.529 146.915 196.739 146.577 197.136 146.424C197.584 146.238 197.525 147.289 197.045 147.628C197.457 147.781 198.042 148.035 198.143 148.272C198.345 148.772 198.286 149.204 198.075 149.517C198.075 149.517 198.438 150.517 198.192 151.187C198.191 151.187 198.547 152.093 198.015 152.846ZM192.358 116.733C192.358 116.825 192.443 117.411 192.587 118.351C192.457 117.821 192.381 117.279 192.358 116.733ZM201.209 120.351L201.759 116.818C201.759 116.818 202.156 118.8 201.209 120.351Z" fill="#2400BE"/>
<path d="M239.202 149.788C239.058 149.737 238.956 149.712 238.897 149.719C238.516 149.797 236.074 149.236 236.074 149.236L236.68 144.611C236.68 144.611 237.493 144.983 238.297 145.127C238.592 146.645 239.032 148.915 239.202 149.788Z" fill="#0C003F"/>
<path d="M201.726 116.733C201.65 116.733 201.471 116.725 201.202 116.716C200.373 116.691 198.758 116.648 197.151 116.648H196.965C195.452 116.648 193.923 116.691 193.061 116.716C192.835 116.663 192.598 116.669 192.375 116.733L192.359 116.648C192.359 116.648 193.305 116.089 192.73 112.2C192.688 111.954 192.646 111.691 192.595 111.42C191.759 106.828 201.336 111.387 201.336 111.387C201.336 111.387 201.26 111.785 201.219 112.403C201.133 113.411 201.11 115.005 201.573 116.351C201.624 116.487 201.667 116.606 201.726 116.733Z" fill="#F1B99E"/>
<path d="M193.061 116.716C192.687 116.725 192.443 116.733 192.374 116.733C192.598 116.669 192.834 116.663 193.061 116.716ZM197.151 116.818L197.059 117.012L196.965 116.818V116.648H197.15V116.818H197.151ZM199.045 121.164L201.22 120.284L201.21 120.351L197.136 146.423L197.067 145.999L197.016 145.687L196.899 144.967L196.746 144.026L196.459 142.255L196.273 141.104L196.181 140.527L196.088 139.951C195.005 133.395 193.94 126.837 192.891 120.277L192.858 120.081L192.715 119.149C192.664 118.861 192.629 118.598 192.588 118.352C192.477 117.632 192.401 117.125 192.375 116.879L192.368 116.794L192.36 116.735H192.376L192.943 120.303L195.074 121.166L196.038 119.149L197.06 117.013L198.296 119.599L199.045 121.164ZM201.759 116.818L201.499 118.478L201.751 116.792C201.751 116.8 201.759 116.81 201.759 116.818Z" fill="#CCE9FF"/>
<path d="M198.15 92.7254C198.15 92.7254 204.862 93.8131 203.841 104.59C202.817 115.37 196.895 114.487 196.498 114.477C196.101 114.463 190.551 114.671 190.121 101.512C190.121 101.512 189.931 91.7812 198.15 92.7254Z" fill="#F1B99E"/>
<path d="M203.943 101.547C203.943 101.547 204.68 100.739 204.949 101.559C205.217 102.372 203.992 105.885 203.899 106.183C203.899 106.183 203.764 106.495 203.588 106.324C203.412 106.148 203.943 101.547 203.943 101.547ZM190.282 101.407C190.282 101.407 189.561 100.589 189.276 101.4C188.992 102.211 190.179 105.907 190.236 106.043C190.236 106.043 190.365 106.364 190.549 106.191C190.724 106.021 190.282 101.407 190.282 101.407Z" fill="#F1B99E"/>
<path d="M203.939 103.201L202.981 104.518C202.981 104.518 203.009 101.627 202.852 101.175C202.7 100.721 203.036 99.1414 202.907 98.816C202.778 98.4918 199.13 102.31 191.814 101.564L191.335 101.747C190.859 101.931 191.092 105.133 191.092 105.133L190.302 104.217C190.302 104.217 189.409 98.7512 189.497 97.8366C189.612 96.6217 189.202 90.9497 199.497 91.9254C200.681 92.031 201.809 92.4754 202.748 93.2057C203.806 94.0334 204.895 95.325 204.794 97.0982C204.664 99.4429 203.939 103.201 203.939 103.201Z" fill="#0C003F"/>
<path d="M193.44 113.047C193.44 113.047 196.208 116.288 200.605 113.047C200.605 113.047 199.374 115.503 196.787 115.563C194.202 115.621 193.44 113.047 193.44 113.047Z" fill="#A77860"/>
<path d="M225.014 171.218L220.39 251.503L220.146 255.104H177.033L176.787 251.538V251.528L171.318 171.218H225.014Z" fill="#D3D3D3"/>
<path d="M163.295 264.002H234.307L220.993 251.503H176.82L163.295 264.002ZM233.038 153.847L228.389 171.218H167.944L163.295 153.847H233.038Z" fill="#F2F2F2"/>
<path d="M197.135 146.423L197.102 151.127L194.92 146.975L191.759 139.315L193.44 138.602L186.652 118.471L192.358 116.648L192.374 116.733L192.941 120.301L196.181 140.526L196.273 141.103L196.459 142.255L196.746 144.026L196.898 144.967L197.016 145.687L197.067 145.999L197.135 146.423ZM201.923 116.648L207.624 118.467L200.84 138.606L202.525 139.312L199.36 146.975L197.18 151.127L197.144 146.423L201.923 116.648Z" fill="#2400BE"/>
<path d="M197.043 147.628C197.033 147.635 197.026 147.635 197.016 147.644C196.517 147.966 195.139 147.025 195.139 147.025C195.139 147.025 195.166 147.016 195.217 147.008C195.528 146.914 196.738 146.576 197.135 146.423C197.583 146.237 197.524 147.288 197.043 147.628Z" fill="#F1B99E"/>
<path d="M198.015 152.846C198.015 152.846 198.167 153.406 198.04 153.847H189.838C189.813 153.843 189.787 153.837 189.762 153.83L189.78 153.56C190.143 153.508 190.347 153.475 190.347 153.475C192.298 150.39 192.384 148.475 192.367 147.984C193.432 147.459 194.548 146.967 194.92 146.975C194.996 146.975 195.073 146.984 195.139 146.993C195.167 146.993 195.192 147.001 195.218 147.009C195.841 147.093 196.291 147.407 196.619 147.492C196.661 147.501 196.83 147.551 197.044 147.628C197.457 147.781 198.041 148.035 198.142 148.272C198.344 148.772 198.285 149.204 198.074 149.517C198.074 149.517 198.437 150.517 198.191 151.187C198.191 151.187 198.547 152.093 198.015 152.846Z" fill="#F1B99E"/>
<path d="M195.843 120.273L195.264 134.935L197.096 146.182L199.047 134.881L198.238 120.273L196.529 120.317L195.843 120.273Z" fill="#FFAA81"/>
<path d="M195.075 118.615H198.858V121.933H195.075V118.615Z" fill="#FFAA81"/>
<path d="M197.059 117.012L196.037 119.147L195.073 121.164L192.942 120.301L192.375 116.733C192.443 116.733 192.688 116.725 193.061 116.716C193.923 116.691 195.452 116.648 196.965 116.648V116.818L197.059 117.012ZM192.375 116.733L192.942 120.301L192.89 120.275L192.857 120.08L192.715 119.148L192.374 116.878L192.367 116.793L192.359 116.734C192.358 116.733 192.367 116.733 192.375 116.733Z" fill="#F2F2F2"/>
<path d="M197.151 116.648V116.818L197.059 117.012L196.965 116.818V116.648H197.151Z" fill="#F2F2F2"/>
<path d="M201.751 116.793L201.498 118.479L201.219 120.285L199.045 121.165L198.294 119.598L197.059 117.012L197.151 116.818V116.649C198.758 116.649 200.372 116.691 201.202 116.716C201.472 116.725 201.65 116.734 201.726 116.734C201.733 116.75 201.743 116.777 201.751 116.793Z" fill="#F2F2F2"/>
<path d="M197.143 116.648H197.15V116.818L197.058 117.012L196.964 116.818V116.648H197.143ZM201.219 120.284L201.498 118.479L201.235 120.275L201.219 120.284ZM201.759 116.733L201.751 116.792C201.744 116.776 201.734 116.75 201.726 116.733H201.759Z" fill="#F2F2F2"/>
<path d="M178.284 151.164H185.75V153.846H178.284V151.164Z" fill="#FFAA81"/>
<path d="M181.142 151.455L186.06 134.929L187.032 135.22L182.115 151.746L181.142 151.455Z" fill="#FFAA81"/>
<path d="M188.521 136.495C188.42 136.774 188.265 137.03 188.066 137.249C187.866 137.468 187.626 137.645 187.358 137.771C187.09 137.897 186.8 137.969 186.504 137.982C186.209 137.995 185.914 137.95 185.635 137.849C185.357 137.748 185.102 137.593 184.883 137.393C184.665 137.194 184.488 136.952 184.362 136.684C184.237 136.415 184.165 136.125 184.152 135.828C184.139 135.532 184.184 135.236 184.284 134.957L184.859 133.364C185.063 132.801 185.481 132.341 186.022 132.087C186.564 131.832 187.184 131.804 187.746 132.007C188.308 132.212 188.766 132.631 189.02 133.174C189.273 133.717 189.301 134.338 189.097 134.901L188.521 136.495ZM213.018 151.164H220.484V153.846H213.018V151.164Z" fill="#FFAA81"/>
<path d="M211.732 135.23L212.704 134.939L217.63 151.463L216.658 151.754L211.732 135.23Z" fill="#FFAA81"/>
<path d="M210.246 136.495C210.344 136.777 210.497 137.037 210.696 137.259C210.896 137.482 211.137 137.662 211.406 137.79C211.675 137.919 211.967 137.992 212.265 138.006C212.563 138.021 212.86 137.976 213.141 137.874C213.421 137.772 213.678 137.616 213.898 137.414C214.118 137.212 214.295 136.968 214.42 136.697C214.545 136.426 214.615 136.132 214.626 135.834C214.637 135.535 214.589 135.237 214.484 134.957L213.91 133.364C213.706 132.801 213.288 132.342 212.747 132.087C212.205 131.833 211.586 131.805 211.024 132.009C210.462 132.212 210.003 132.632 209.75 133.174C209.496 133.717 209.468 134.338 209.671 134.901L210.246 136.495Z" fill="#FFAA81"/>
<path d="M168.476 187.143H228.107V202.936H168.476V187.143Z" fill="#F2F2F2"/>
<path d="M51.2023 273.934C51.0321 273.884 50.9523 273.853 50.9523 273.853C50.9523 273.853 51.0616 270.512 51.1319 267.553C51.1319 268.426 51.142 269.258 51.1514 270.051V270.161C51.1024 271.676 51.0616 272.79 51.0616 272.79C51.0616 272.79 51.1024 272.81 51.1828 272.83C51.1828 273.222 51.1922 273.583 51.2023 273.934ZM51.2412 276.754C51.2531 277.516 51.2626 277.928 51.2626 277.928L51.1922 277.736C51.2117 277.416 51.2217 277.095 51.2412 276.754ZM342.954 271.225C343.003 272.74 343.044 273.853 343.044 273.853C343.044 273.853 343.003 273.874 342.923 273.893L342.954 271.225ZM343.013 260.28C343.033 260.219 343.064 260.169 343.083 260.109C343.056 260.457 343.033 260.805 343.013 261.153V260.28Z" fill="#FFAA81"/>
</svg>
